<svg width="149px" height="37px" viewBox="0 0 149 37" version="1.1" xmlns="http://www.w3.org/2000/svg" xmlns:xlink="http://www.w3.org/1999/xlink">
    <!-- Generator: Sketch 40.2 (33826) - http://www.bohemiancoding.com/sketch -->
    <title>logo text</title>
    <desc>Created with Sketch.</desc>
    <defs/>
    <g id="styleguide" stroke="none" stroke-width="1" fill="none" fill-rule="evenodd">
        <g transform="translate(-432.000000, -434.000000)" id="logo" fill="#FFFFFF">
            <g transform="translate(118.000000, 286.000000)">
                <g id="logo-text" transform="translate(314.000000, 148.000000)">
                    <path d="M19.0186667,19.078 C19.0186667,16.7233333 18.23,14.7366667 16.6506667,13.12 C15.072,11.5033333 13.138,10.6946667 10.848,10.6946667 C8.558,10.6946667 6.624,11.5293333 5.04533333,13.1986667 C3.466,14.8666667 2.67866667,16.84 2.67866667,19.1173333 C2.67866667,21.3933333 3.48,23.3673333 5.084,25.0353333 C6.68733333,26.7046667 8.60933333,27.538 10.848,27.538 C13.0873333,27.538 15.0066667,26.7373333 16.612,25.1333333 C18.216,23.5286667 19.0186667,21.5106667 19.0186667,19.078 L19.0186667,19.078 Z M21.4633333,8.676 L21.4633333,29.2866667 L18.864,29.2866667 L18.864,25.754 C16.5086667,28.5746667 13.8166667,29.9846667 10.7906667,29.9846667 C7.76266667,29.9846667 5.208,28.9046667 3.124,26.7433333 C1.04133333,24.5833333 0,22.008 0,19.0206667 C0,16.032 1.04733333,13.4693333 3.144,11.3346667 C5.24,9.20066667 7.74933333,8.132 10.674,8.132 C14.0366667,8.132 16.7666667,9.56866667 18.864,12.4406667 L18.864,8.676 L21.4633333,8.676 Z" id="Fill-10"/>
                    <path d="M45.0573333,19.1553333 C45.0573333,16.8526667 44.2746667,14.866 42.71,13.198 C41.1433333,11.5293333 39.21,10.6946667 36.9066667,10.6946667 C34.6026667,10.6946667 32.6566667,11.5353333 31.0653333,13.2166667 C29.474,14.8986667 28.6786667,16.8786667 28.6786667,19.1553333 C28.6786667,21.4333333 29.4866667,23.3993333 31.104,25.056 C32.722,26.7106667 34.6166667,27.538 36.7906667,27.538 C38.9646667,27.538 40.886,26.7246667 42.5546667,25.0933333 C44.2226667,23.4633333 45.0573333,21.484 45.0573333,19.1553333 L45.0573333,19.1553333 Z M47.4653333,8.676 L47.4653333,36.8153333 L44.864,36.8153333 L44.864,25.7533333 C42.5346667,28.5746667 39.8433333,29.9846667 36.7906667,29.9846667 C33.738,29.9846667 31.1753333,28.9046667 29.1053333,26.7433333 C27.0346667,24.5833333 26,22.008 26,19.0206667 C26,16.0313333 27.0473333,13.4693333 29.144,11.3346667 C31.24,9.2 33.7366667,8.132 36.636,8.132 C40.0246667,8.132 42.7673333,9.56866667 44.864,12.4406667 L44.864,8.676 L47.4653333,8.676 Z" id="Fill-12"/>
                    <path d="M71.3433333,29.4086667 L68.664,29.4086667 L68.664,25.7206667 C66.5426667,28.542 63.968,29.9506667 60.9413333,29.9506667 C59.3873333,29.9506667 57.9913333,29.5313333 56.748,28.69 C55.5073333,27.8493333 54.6273333,26.7513333 54.1093333,25.3913333 C53.592,24.0326667 53.3333333,22.0326667 53.3333333,19.3946667 L53.3333333,8.79866667 L55.9733333,8.79866667 L55.9733333,18.6173333 C55.9733333,21.0253333 56.082,22.6553333 56.302,23.508 C56.522,24.3633333 56.858,25.0873333 57.312,25.682 C57.7646667,26.2773333 58.34,26.7306667 59.0386667,27.0406667 C59.7373333,27.3506667 60.5846667,27.5053333 61.5813333,27.5053333 C62.578,27.5053333 63.554,27.2606667 64.5113333,26.768 C65.4686667,26.2786667 66.284,25.592 66.9566667,24.712 C67.6293333,23.8333333 68.0813333,22.9253333 68.3153333,21.9953333 C68.548,21.0626667 68.664,19.188 68.664,16.366 L68.664,8.79866667 L71.3433333,8.79866667 L71.3433333,29.4086667 Z" id="Fill-14"/>
                    <path d="M95.0173333,19.078 C95.0173333,16.7233333 94.2286667,14.7366667 92.65,13.12 C91.072,11.5033333 89.1373333,10.6946667 86.8466667,10.6946667 C84.5573333,10.6946667 82.6226667,11.5293333 81.044,13.1986667 C79.4666667,14.8666667 78.676,16.84 78.676,19.1173333 C78.676,21.3933333 79.4786667,23.3673333 81.0846667,25.0353333 C82.6866667,26.7046667 84.6093333,27.538 86.8466667,27.538 C89.0846667,27.538 91.0073333,26.7373333 92.6113333,25.1333333 C94.2153333,23.5286667 95.0173333,21.5106667 95.0173333,19.078 L95.0173333,19.078 Z M97.4626667,8.676 L97.4626667,29.2866667 L94.8626667,29.2866667 L94.8626667,25.754 C92.5073333,28.5746667 89.8173333,29.9846667 86.7893333,29.9846667 C83.7613333,29.9846667 81.2066667,28.9046667 79.124,26.7433333 C77.04,24.5833333 76,22.008 76,19.0206667 C76,16.032 77.0473333,13.4693333 79.1433333,11.3346667 C81.2393333,9.20066667 83.7493333,8.132 86.6726667,8.132 C90.0373333,8.132 92.766,9.56866667 94.8626667,12.4406667 L94.8626667,8.676 L97.4626667,8.676 Z" id="Fill-16"/>
                    <path d="M121.685333,19.1966667 C121.685333,16.842 120.908,14.8493333 119.355333,13.2186667 C117.802667,11.59 115.862667,10.774 113.533333,10.774 C111.204667,10.774 109.256667,11.6086667 107.692,13.278 C106.126667,14.946 105.344,16.9126667 105.344,19.178 C105.344,21.44 106.146667,23.414 107.750667,25.096 C109.354667,26.778 111.251333,27.618 113.437333,27.618 C115.623333,27.618 117.545333,26.8226667 119.2,25.232 C120.856667,23.6406667 121.685333,21.6286667 121.685333,19.1966667 L121.685333,19.1966667 Z M124.130667,0.798666667 L124.130667,29.366 L121.529333,29.366 L121.529333,25.8333333 C119.174667,28.6546667 116.478,30.0646667 113.437333,30.0646667 C110.396667,30.0646667 107.842,28.9906667 105.772,26.8433333 C103.701333,24.6953333 102.666667,22.1206667 102.666667,19.1186667 C102.666667,16.1173333 103.714,13.5486667 105.809333,11.414 C107.905333,9.28 110.416,8.21133333 113.339333,8.21133333 C116.703333,8.21133333 119.432667,9.64866667 121.529333,12.52 L121.529333,0.798666667 L124.130667,0.798666667 Z" id="Fill-18"/>
                    <path d="M130.186667,29.366 L132.866,29.366 L132.866,8.756 L130.186667,8.756 L130.186667,29.366 Z M129.333333,3.01133333 C129.333333,2.416 129.546667,1.89933333 129.973333,1.45866667 C130.400667,1.01933333 130.918667,0.798666667 131.526,0.798666667 C132.133333,0.798666667 132.650667,1.01266667 133.078667,1.43933333 C133.506,1.86666667 133.718667,2.384 133.718667,2.992 C133.718667,3.6 133.506,4.118 133.078667,4.54533333 C132.650667,4.97133333 132.133333,5.18533333 131.526,5.18533333 C130.918667,5.18533333 130.400667,4.96533333 129.973333,4.52466667 C129.546667,4.08533333 129.333333,3.58066667 129.333333,3.01133333 L129.333333,3.01133333 Z" id="Fill-20"/>
                    <path d="M148.302667,10.9273333 L146.595333,12.6726667 C145.172,11.302 143.787333,10.616 142.442667,10.616 C141.562667,10.616 140.824667,10.8946667 140.23,11.4506667 C139.634667,12.0073333 139.337333,12.6933333 139.337333,13.508 C139.337333,14.324 139.652,15.022 140.287333,15.604 C140.921333,16.1866667 142.014667,16.8846667 143.567333,17.6993333 C145.120667,18.5153333 146.304,19.3953333 147.119333,20.3386667 C147.932667,21.2826667 148.342,22.4413333 148.342,23.8126667 C148.342,25.5473333 147.74,27.008 146.536667,28.198 C145.332667,29.3893333 143.851333,29.9846667 142.092,29.9846667 C140.927333,29.9846667 139.808667,29.726 138.734667,29.2086667 C137.662,28.6913333 136.75,27.966 136,27.0346667 L137.667333,25.1706667 C139.039333,26.698 140.475333,27.4606667 141.976667,27.4606667 C143.037333,27.4606667 143.942667,27.112 144.692667,26.4133333 C145.442667,25.716 145.817333,24.8926667 145.817333,23.948 C145.817333,23.004 145.487333,22.228 144.828,21.6206667 C144.169333,21.0126667 143.067333,20.3206667 141.53,19.5426667 C139.99,18.768 138.838667,17.92 138.074667,17.0013333 C137.312667,16.082 136.929333,14.892 136.929333,13.4306667 C136.929333,11.9686667 137.467333,10.72 138.540667,9.68466667 C139.615333,8.64933333 141.037333,8.132 142.81,8.132 C144.582667,8.132 146.412667,9.064 148.302667,10.9273333" id="Fill-22"/>
                </g>
            </g>
        </g>
    </g>
</svg>