<?xml version="1.0" encoding="utf-8"?>
<!-- Generator: Adobe Illustrator 22.0.0, SVG Export Plug-In . SVG Version: 6.00 Build 0)  -->
<svg version="1.1" id="Capa_1" xmlns="http://www.w3.org/2000/svg" xmlns:xlink="http://www.w3.org/1999/xlink" x="0px" y="0px"
	 viewBox="0 0 284.9 284.9" style="enable-background:new 0 0 284.9 284.9;" xml:space="preserve">
<style type="text/css">
	.st0{fill:#A1A0A0;}
	.st1{fill:#EDF1F4;}
</style>
<g>
	<g>
		<path class="st0" d="M277.5,135.9L144.5,2.9C142.6,1,140.4,0,137.9,0c-2.5,0-4.7,1-6.6,2.9l-14.3,14.3c-1.9,1.9-2.9,4.1-2.9,6.6
			s0.9,4.7,2.9,6.6l112.2,112.2L117.1,254.7c-1.9,1.9-2.9,4.1-2.9,6.6c0,2.5,0.9,4.7,2.9,6.6l14.3,14.3c1.9,1.9,4.1,2.9,6.6,2.9
			c2.5,0,4.7-1,6.6-2.9l133.1-133c1.9-1.9,2.9-4.1,2.9-6.6S279.4,137.8,277.5,135.9z"/>
		<path class="st1" d="M170.7,142.5c0-2.5-0.9-4.7-2.9-6.6l-133-133C32.9,1,30.7,0,28.3,0s-4.7,1-6.6,2.9L7.4,17.1
			c-1.9,1.9-2.9,4.1-2.9,6.6s0.9,4.7,2.9,6.6l112.2,112.2L7.4,254.7c-1.9,1.9-2.9,4.1-2.9,6.6c0,2.5,0.9,4.7,2.9,6.6l14.3,14.3
			c1.9,1.9,4.1,2.9,6.6,2.9s4.7-1,6.6-2.9l133-133C169.8,147.1,170.7,144.9,170.7,142.5z"/>
	</g>
</g>
</svg>
