<?xml version="1.0" encoding="utf-8"?>
<!-- Generator: Adobe Illustrator 22.0.0, SVG Export Plug-In . SVG Version: 6.00 Build 0)  -->
<svg version="1.1" id="Capa_1" xmlns="http://www.w3.org/2000/svg" xmlns:xlink="http://www.w3.org/1999/xlink" x="0px" y="0px"
	 viewBox="0 0 284.9 284.9" style="enable-background:new 0 0 284.9 284.9;" xml:space="preserve">
<style type="text/css">
	.st0{fill:#EDF1F4;}
	.st1{fill:#A1A0A0;}
</style>
<g>
	<g>
		<path class="st0" d="M165.3,142.5L277.5,30.3c1.9-1.9,2.8-4.1,2.8-6.6c0-2.5-1-4.7-2.8-6.6L263.2,2.9C261.3,1,259.1,0,256.7,0
			c-2.5,0-4.7,1-6.6,2.9l-133,133c-1.9,1.9-2.9,4.1-2.9,6.6c0,2.5,0.9,4.7,2.9,6.6l133,133c1.9,1.9,4.1,2.9,6.6,2.9s4.7-0.9,6.6-2.9
			l14.3-14.3c1.9-1.9,2.9-4.1,2.9-6.6c0-2.5-0.9-4.7-2.9-6.6L165.3,142.5z"/>
		<path class="st1" d="M55.7,142.5L167.9,30.3c1.9-1.9,2.9-4.1,2.9-6.6c0-2.5-0.9-4.7-2.9-6.6L153.6,2.9C151.7,1,149.5,0,147,0
			c-2.5,0-4.7,1-6.6,2.9l-133,133c-1.9,1.9-2.9,4.1-2.9,6.6c0,2.5,0.9,4.7,2.9,6.6l133,133c1.9,1.9,4.1,2.9,6.6,2.9
			c2.5,0,4.7-0.9,6.6-2.9l14.3-14.3c1.9-1.9,2.9-4.1,2.9-6.6c0-2.5-0.9-4.7-2.9-6.6L55.7,142.5z"/>
	</g>
</g>
</svg>
