<svg class="ldi-8hexcb" width="200px"  height="200px"  xmlns="http://www.w3.org/2000/svg" xmlns:xlink="http://www.w3.org/1999/xlink" viewBox="0 0 100 100" preserveAspectRatio="xMidYMid" style="background: rgba(0, 0, 0, 0) none repeat scroll 0% 0%;"><!--?xml version="1.0" encoding="utf-8"?--><!--Generator: Adobe Illustrator 21.0.0, SVG Export Plug-In . SVG Version: 6.00 Build 0)--><svg version="1.1" id="Layer_1" xmlns="http://www.w3.org/2000/svg" xmlns:xlink="http://www.w3.org/1999/xlink" x="0px" y="0px" viewBox="0 0 100 100" style="transform-origin: 50px 50px 0px;" xml:space="preserve"><g style="transform-origin: 50px 50px 0px;"><g style="transform-origin: 50px 50px 0px; transform: scale(0.6);"><g style="transform-origin: 50px 50px 0px;"><g><style type="text/css" style="transform-origin: 50px 50px 0px; animation-duration: 1s; animation-delay: -1s; animation-direction: normal;" class="ld ld-breath">.st0{fill:#E0E0E0;} .st1{fill:#666766;} .st2{fill:#010101;}</style><g style="transform-origin: 50px 50px 0px; animation-duration: 1s; animation-delay: -0.928571s; animation-direction: normal;" class="ld ld-breath"><path class="st0" d="M77.5,28.8L61.2,12.5C60,11.3,59,10.8,58,10.8H22.6c-0.9,0-1.7,0.8-1.7,1.7v75.1c0,0.9,0.8,1.7,1.7,1.7h54.8 c0.9,0,1.7-0.8,1.7-1.7V32C79.1,31,78.6,29.9,77.5,28.8z" fill="#e0e0e0" style="fill: rgb(224, 224, 224);"></path></g><g style="transform-origin: 50px 50px 0px; animation-duration: 1s; animation-delay: -0.857143s; animation-direction: normal;" class="ld ld-breath"><path class="st1" d="M62.4,28.8h15.1L61.2,12.5v15.1C61.2,28.2,61.8,28.8,62.4,28.8z" fill="#393939" style="fill: rgb(57, 57, 57);"></path></g><g style="transform-origin: 50px 50px 0px; animation-duration: 1s; animation-delay: -0.785714s; animation-direction: normal;" class="ld ld-breath"><path class="st2" d="M62.3,8.3c-0.5-0.5-1.2-0.8-1.9-0.8H22.6c-2.7,0-5,2.2-5,5v75.1c0,2.7,2.2,5,5,5h54.8c2.7,0,5-2.2,5-5V31.1 c0-1.8-0.7-3.4-1.9-4.7L62.3,8.3z M61.2,12.5l16.2,16.2H62.4c-0.7,0-1.2-0.5-1.2-1.2 M79.1,87.5c0,0.9-0.8,1.7-1.7,1.7H22.6 c-0.9,0-1.7-0.8-1.7-1.7V12.5c0-0.9,0.8-1.7,1.7-1.7H58v16.8c0,2.5,2,4.5,4.5,4.5h16.7V87.5z" fill="rgb(1, 1, 1)" style="fill: rgb(1, 1, 1);"></path></g><g style="transform-origin: 50px 50px 0px; animation-duration: 1s; animation-delay: -0.714286s; animation-direction: normal;" class="ld ld-breath"><path d="M34.533 57.510C29.809 57.510 27.523 60.710 27.523 65.243L27.523 76.977C27.523 81.472 29.771 84.710 34.533 84.710C39.257 84.710 41.581 81.472 41.581 76.977L41.581 65.243C41.581 60.824 39.257 57.510 34.533 57.510ZM37.581 76.977C37.581 78.082 37.543 80.786 34.533 80.786C31.562 80.786 31.485 78.082 31.485 76.977L31.485 65.243C31.485 64.138 31.562 61.434 34.533 61.434C37.543 61.434 37.581 64.138 37.581 65.243ZM55.410 70.386C56.819 69.358 57.505 67.567 57.505 65.015C57.505 61.472 55.600 58.005 50.267 58.005L44.286 58.005L44.286 84.215L50.724 84.215C56.095 84.215 58.343 80.710 58.343 76.862C58.343 73.510 57.238 71.567 55.410 70.386ZM50.152 61.738C53.619 61.738 53.657 64.329 53.657 65.281C53.657 66.234 53.619 69.129 50.152 69.129L48.019 69.129L48.019 61.738ZM54.343 76.786C54.343 77.891 53.924 80.482 50.724 80.482L48.019 80.482L48.019 72.786L50.495 72.786C54.267 72.786 54.343 75.720 54.343 76.786ZM75.105 58.005L62.229 58.005L62.229 61.853L71.219 61.853L71.219 76.862C71.219 78.234 71.067 80.901 68.058 80.901C65.124 80.901 64.896 78.386 64.896 76.977L64.896 74.386L61.048 74.386L61.048 76.977C61.048 81.815 63.334 84.710 68.058 84.710C72.820 84.672 75.105 81.815 75.105 76.977L75.105 61.738Z" fill="rgb(0, 0, 0)" style="fill: rgb(0, 0, 0);"></path></g><metadata xmlns:d="https://loading.io/stock/" style="transform-origin: 50px 50px 0px; animation-duration: 1s; animation-delay: -0.642857s; animation-direction: normal;" class="ld ld-breath">
<d:name style="transform-origin: 50px 50px 0px; animation-duration: 1s; animation-delay: -0.571429s; animation-direction: normal;" class="ld ld-breath">obj</d:name>
<d:tags style="transform-origin: 50px 50px 0px; animation-duration: 1s; animation-delay: -0.5s; animation-direction: normal;" class="ld ld-breath">type,postfix,suffix,data,obj,file format</d:tags>
<d:license style="transform-origin: 50px 50px 0px; animation-duration: 1s; animation-delay: -0.428571s; animation-direction: normal;" class="ld ld-breath">cc-by</d:license>
<d:slug style="transform-origin: 50px 50px 0px; animation-duration: 1s; animation-delay: -0.357143s; animation-direction: normal;" class="ld ld-breath">8hexcb</d:slug>
</metadata></g></g></g></g><style type="text/css" style="transform-origin: 50px 50px 0px; animation-duration: 1s; animation-delay: -0.285714s; animation-direction: normal;" class="ld ld-breath">@keyframes ld-breath {
  0% {
    -webkit-transform: scale(0.86);
    transform: scale(0.86);
  }
  50% {
    -webkit-transform: scale(1.06);
    transform: scale(1.06);
  }
  100% {
    -webkit-transform: scale(0.86);
    transform: scale(0.86);
  }
}
@-webkit-keyframes ld-breath {
  0% {
    -webkit-transform: scale(0.86);
    transform: scale(0.86);
  }
  50% {
    -webkit-transform: scale(1.06);
    transform: scale(1.06);
  }
  100% {
    -webkit-transform: scale(0.86);
    transform: scale(0.86);
  }
}
.ld.ld-breath {
  -webkit-animation: ld-breath 1s infinite;
  animation: ld-breath 1s infinite;
}
</style></svg></svg>