<?xml version="1.0"?>
<svg xmlns="http://www.w3.org/2000/svg" xmlns:xlink="http://www.w3.org/1999/xlink" version="1.1" viewBox="0 0 192 192" width="50px" height="50px"><g fill="none" fill-rule="nonzero" stroke="none" stroke-width="1" stroke-linecap="butt" stroke-linejoin="miter" stroke-miterlimit="10" stroke-dasharray="" stroke-dashoffset="0" font-family="none" font-weight="none" font-size="none" text-anchor="none" style="mix-blend-mode: normal"><path d="M0,192v-192h192v192z" fill="none"/><path d="M0,96c0,-53.01934 42.98066,-96 96,-96c53.01934,0 96,42.98066 96,96c0,53.01934 -42.98066,96 -96,96c-53.01934,0 -96,-42.98066 -96,-96zM96,184.32c48.77779,0 88.32,-39.54221 88.32,-88.32c0,-48.77779 -39.54221,-88.32 -88.32,-88.32c-48.77779,0 -88.32,39.54221 -88.32,88.32c0,48.77779 39.54221,88.32 88.32,88.32z" fill="#b6000d"/><g fill="#1b4dac"><g id="surface1"><path d="M99.552,29.004c-28.692,0.648 -31.944,21.612 -25.824,45.792c-0.96,0.648 -2.916,2.952 -2.592,6.816c0.96,7.092 3.864,9.024 5.472,9.024c0.648,4.836 2.928,9.924 5.184,13.152c1.608,2.256 2.208,5.16 2.208,8.064c0,2.58 0.036,0.936 -0.288,3.84c-0.324,0.936 -0.78,1.788 -1.344,2.592c0.66,2.484 4.464,14.304 17.472,14.304c13.32,0 16.896,-12.756 17.28,-14.304c-0.6,-0.792 -1.08,-1.656 -1.44,-2.592c-0.324,-3.54 -0.384,-1.896 -0.384,-4.8c0,-2.58 1.008,-4.788 2.304,-6.72c2.256,-3.228 4.44,-8.7 5.088,-13.536c1.944,0 4.824,-1.932 5.472,-9.024c0.324,-3.864 -1.2,-6.168 -2.496,-6.816c3.228,-9.024 9.3,-37.032 -11.328,-39.936c-2.256,-3.864 -7.692,-5.856 -14.784,-5.856zM122.208,122.604c-2.58,6.864 -9.408,16.128 -22.368,16.128c-12.972,0 -19.776,-9.096 -22.464,-16.032c-12.768,7.86 -38.784,10.272 -38.784,37.536h122.496c0,-27.96 -25.896,-29.88 -38.88,-37.632z"/></g></g><path d="M96,192c-53.01934,0 -96,-42.98066 -96,-96v0c0,-53.01934 42.98066,-96 96,-96v0c53.01934,0 96,42.98066 96,96v0c0,53.01934 -42.98066,96 -96,96z" fill="none"/><path d="M96,188.16c-50.89856,0 -92.16,-41.26144 -92.16,-92.16v0c0,-50.89856 41.26144,-92.16 92.16,-92.16v0c50.89856,0 92.16,41.26144 92.16,92.16v0c0,50.89856 -41.26144,92.16 -92.16,92.16z" fill="none"/><path d="M96,192c-53.01934,0 -96,-42.98066 -96,-96v0c0,-53.01934 42.98066,-96 96,-96v0c53.01934,0 96,42.98066 96,96v0c0,53.01934 -42.98066,96 -96,96z" fill="none"/><path d="M96,188.16c-50.89856,0 -92.16,-41.26144 -92.16,-92.16v0c0,-50.89856 41.26144,-92.16 92.16,-92.16v0c50.89856,0 92.16,41.26144 92.16,92.16v0c0,50.89856 -41.26144,92.16 -92.16,92.16z" fill="none"/><path d="M96,192c-53.01934,0 -96,-42.98066 -96,-96v0c0,-53.01934 42.98066,-96 96,-96v0c53.01934,0 96,42.98066 96,96v0c0,53.01934 -42.98066,96 -96,96z" fill="none"/><path d="M96,188.16c-50.89856,0 -92.16,-41.26144 -92.16,-92.16v0c0,-50.89856 41.26144,-92.16 92.16,-92.16v0c50.89856,0 92.16,41.26144 92.16,92.16v0c0,50.89856 -41.26144,92.16 -92.16,92.16z" fill="none"/><path d="M96,192c-53.01934,0 -96,-42.98066 -96,-96v0c0,-53.01934 42.98066,-96 96,-96v0c53.01934,0 96,42.98066 96,96v0c0,53.01934 -42.98066,96 -96,96z" fill="none"/><path d="M96,184.32c-48.77779,0 -88.32,-39.54221 -88.32,-88.32v0c0,-48.77779 39.54221,-88.32 88.32,-88.32v0c48.77779,0 88.32,39.54221 88.32,88.32v0c0,48.77779 -39.54221,88.32 -88.32,88.32z" fill="none"/></g></svg>
