<?xml version="1.0" standalone="no"?>
<!DOCTYPE svg PUBLIC "-//W3C//DTD SVG 20010904//EN"
 "http://www.w3.org/TR/2001/REC-SVG-20010904/DTD/svg10.dtd">
<svg version="1.0" xmlns="http://www.w3.org/2000/svg"
 width="260.000000pt" height="260.000000pt" viewBox="0 0 260.000000 260.000000"
 preserveAspectRatio="xMidYMid meet">
<metadata>
Created by potrace 1.11, written by Peter Selinger 2001-2013
</metadata>
<g transform="translate(0.000000,260.000000) scale(0.100000,-0.100000)"
fill="#000000" stroke="none">
<path d="M1196 2286 c5 -13 -2 -16 -34 -16 -22 0 -42 5 -44 12 -3 7 -7 5 -11
-6 -5 -11 -3 -15 5 -10 7 4 8 3 4 -5 -4 -6 -12 -8 -18 -5 -6 4 -14 0 -19 -7
-6 -9 -9 -10 -9 -2 0 6 5 15 10 18 6 3 10 12 10 18 0 9 -2 9 -8 0 -4 -6 -20
-17 -35 -22 -26 -10 -28 -10 -22 10 6 19 5 20 -8 8 -8 -8 -14 -18 -14 -24 2
-11 -7 -11 -36 0 -12 5 -17 3 -15 -5 2 -7 -9 -14 -27 -16 -24 -3 -26 -2 -10 5
11 5 23 7 28 4 4 -2 7 -2 7 1 0 3 -10 10 -21 17 -17 9 -20 8 -14 -2 6 -9 3
-11 -8 -6 -16 6 -22 -3 -18 -26 1 -5 -3 -5 -9 -2 -6 4 -9 14 -6 24 5 14 5 14
-7 -1 -8 -9 -30 -18 -50 -20 -20 -1 -37 -6 -37 -10 0 -4 -4 -8 -10 -8 -5 0 -7
8 -4 18 5 14 4 14 -4 2 -6 -8 -9 -17 -6 -21 2 -4 -1 -11 -7 -15 -8 -5 -9 -3
-4 5 9 15 -42 13 -62 -2 -7 -5 -13 -6 -13 -2 0 4 -7 2 -15 -5 -8 -7 -15 -9
-15 -5 0 5 -9 0 -19 -9 -11 -10 -24 -15 -29 -12 -5 3 -9 -1 -9 -9 0 -8 4 -12
8 -9 4 2 10 0 13 -5 7 -10 -13 -9 -31 2 -8 5 -11 1 -8 -12 4 -22 -14 -22 -41
-1 -18 14 -18 14 -4 -4 14 -18 13 -19 -15 -13 -24 6 -26 5 -12 -3 21 -13 13
-30 -14 -30 -17 0 -24 -11 -20 -33 1 -5 -3 -6 -9 -2 -6 3 -8 10 -5 15 3 5 2
11 -3 14 -5 3 -9 0 -9 -7 0 -7 -4 -20 -8 -30 -6 -14 -4 -16 11 -11 11 4 16 4
12 0 -3 -4 -12 -8 -20 -10 -7 -1 -19 -5 -26 -10 -11 -7 -12 -4 -3 12 8 14 8
23 1 27 -6 4 -9 3 -8 -2 3 -13 -13 -54 -20 -49 -4 2 -16 -2 -27 -10 -10 -8
-14 -14 -9 -14 6 0 15 5 22 12 9 9 12 9 12 0 0 -7 -6 -15 -14 -18 -7 -3 -12
-16 -10 -30 1 -13 -2 -22 -7 -18 -5 3 -6 10 -3 16 4 7 2 8 -5 4 -6 -4 -9 -16
-6 -26 3 -10 1 -21 -4 -25 -6 -3 -8 0 -5 8 3 8 0 18 -6 22 -6 3 -10 3 -9 -2 4
-23 -2 -43 -13 -40 -7 1 -13 -2 -13 -8 -2 -25 -17 -55 -25 -50 -4 3 -6 -5 -2
-17 3 -14 1 -19 -6 -14 -6 3 -14 1 -18 -5 -4 -7 -3 -9 4 -5 6 3 13 2 17 -4 4
-6 12 -7 18 -3 7 3 4 -3 -7 -15 -10 -12 -23 -20 -29 -19 -6 1 -11 -4 -12 -11
0 -7 -7 -17 -15 -22 -11 -7 -11 -10 -2 -10 7 0 10 -5 6 -12 -5 -7 -3 -8 7 -3
12 8 12 6 0 -8 -7 -9 -10 -17 -6 -17 4 0 1 -8 -6 -17 -8 -9 -9 -14 -2 -10 7 5
10 1 9 -10 -2 -10 2 -21 8 -25 8 -6 7 -8 -1 -8 -8 0 -10 -7 -6 -17 7 -17 6
-17 -11 0 -22 21 -22 21 -22 -2 0 -11 3 -18 6 -16 3 1 12 -4 19 -13 13 -14 12
-15 -7 -10 -12 4 -25 1 -29 -4 -3 -7 -1 -8 5 -4 6 4 16 -4 23 -16 11 -21 11
-22 -5 -9 -14 12 -16 12 -10 -4 6 -14 4 -16 -6 -10 -9 5 -11 4 -6 -4 4 -6 13
-8 19 -4 8 5 8 2 -1 -9 -7 -8 -10 -23 -6 -32 5 -12 2 -15 -12 -10 -14 4 -16 3
-5 -4 10 -7 11 -14 1 -33 -10 -21 -10 -22 3 -7 8 10 17 15 21 11 3 -3 -2 -15
-11 -25 -16 -18 -16 -18 3 -12 16 7 17 5 7 -8 -7 -8 -10 -18 -6 -21 3 -4 0 -7
-7 -7 -7 0 -10 -3 -6 -7 4 -4 15 3 25 16 13 17 18 19 18 7 0 -9 -5 -16 -10
-16 -5 0 -7 -7 -4 -14 4 -9 1 -13 -6 -10 -8 2 -13 -4 -14 -17 -2 -16 1 -18 12
-9 11 9 12 7 8 -9 -3 -12 -1 -21 6 -21 6 0 11 -5 11 -12 0 -6 -10 -3 -21 8
-22 19 -22 19 -11 -2 6 -11 18 -26 27 -34 11 -9 12 -16 5 -25 -7 -9 -8 -15 -1
-19 6 -4 8 -13 5 -21 -4 -8 -11 -12 -17 -8 -6 4 -7 1 -1 -8 12 -20 14 -39 3
-39 -5 0 0 -9 11 -20 12 -12 18 -25 15 -30 -3 -6 1 -7 11 -3 14 5 15 3 4 -17
-11 -20 -10 -22 4 -17 14 6 16 3 10 -15 -5 -16 -3 -20 9 -15 12 4 13 -1 7 -29
-4 -18 -4 -32 0 -29 15 9 40 -7 40 -26 0 -10 5 -19 11 -19 6 0 9 -9 6 -20 -3
-11 0 -18 6 -17 6 1 11 -4 12 -12 0 -8 7 -16 15 -18 13 -4 13 -3 0 6 -8 6 -11
11 -6 11 5 0 3 6 -3 13 -8 10 -7 14 2 14 8 0 14 -5 15 -11 0 -6 3 -21 6 -34 3
-13 1 -20 -5 -17 -5 4 -9 1 -9 -4 0 -6 5 -11 11 -11 6 0 9 -6 6 -14 -3 -7 -1
-18 4 -23 6 -6 4 -10 -5 -10 -8 0 -12 5 -9 10 3 6 1 7 -6 3 -6 -4 -9 -16 -6
-27 5 -15 3 -18 -12 -13 -16 6 -16 5 2 -10 11 -10 14 -14 6 -10 -10 5 -12 3
-7 -5 5 -7 15 -10 25 -6 13 5 14 4 3 -7 -10 -10 -17 -10 -35 1 l-22 14 20 -23
20 -23 -25 8 -25 8 25 -21 24 -20 -27 3 c-23 3 -26 1 -16 -11 14 -17 23 -19
13 -2 -4 7 -3 8 5 4 8 -6 9 -12 2 -20 -6 -7 -8 -16 -4 -19 3 -4 1 -7 -6 -7 -7
0 -11 6 -8 13 3 8 -1 14 -9 14 -12 0 -12 -4 1 -23 8 -13 11 -25 6 -29 -6 -3
-15 3 -21 12 -9 15 -10 15 -4 -6 4 -17 3 -21 -6 -16 -8 5 -11 4 -6 -3 4 -6 13
-9 21 -5 8 3 15 0 15 -6 0 -6 -9 -11 -19 -11 -17 0 -20 -6 -18 -41 2 -35 -1
-42 -20 -50 -13 -5 -23 -11 -23 -14 0 -4 5 -3 11 1 13 7 59 -15 59 -29 0 -5
-5 -5 -13 1 -8 7 -18 8 -27 1 -12 -8 -11 -9 5 -7 13 2 19 -2 17 -11 -3 -12 0
-12 12 -1 9 7 16 10 16 6 0 -3 15 0 33 8 27 11 34 11 34 1 0 -7 -6 -11 -14 -8
-7 3 -13 1 -13 -5 0 -18 33 -6 41 14 4 10 8 14 8 8 1 -6 8 -11 16 -11 11 0 12
4 3 14 -8 11 -7 12 6 7 11 -4 23 1 32 12 9 11 12 12 8 4 -4 -8 -4 -12 1 -8 4
4 15 2 23 -5 12 -9 14 -9 9 0 -5 7 0 17 12 25 15 9 17 15 9 25 -13 16 -3 17
25 1 21 -11 21 -10 7 7 -14 17 -13 18 2 12 10 -3 18 -2 18 3 0 6 -5 10 -12 10
-6 0 -3 6 7 14 13 10 25 11 37 5 13 -7 20 -4 28 11 6 11 15 18 20 15 4 -3 7 6
6 19 -2 19 1 23 15 21 11 -2 19 0 19 6 0 5 -5 9 -12 9 -6 0 -8 3 -5 6 4 4 14
1 24 -7 11 -9 14 -10 9 -1 -5 8 0 12 14 12 12 0 18 5 15 10 -3 6 -1 10 4 10 6
0 11 -4 11 -10 0 -5 7 -10 16 -10 9 0 12 5 8 13 -4 6 4 2 17 -9 17 -16 30 -19
44 -14 32 14 38 11 32 -12 -6 -22 -6 -22 8 -4 12 15 15 16 15 5 0 -9 7 -16 15
-16 11 0 12 4 3 14 -8 11 -7 12 6 7 9 -3 16 -10 16 -14 0 -4 7 -11 16 -14 8
-3 13 -2 10 3 -3 5 1 12 10 15 8 3 13 2 10 -2 -2 -4 -1 -14 5 -22 7 -12 9 -11
10 5 1 11 1 24 0 28 -1 5 3 6 9 2 6 -3 8 -10 5 -15 -3 -4 4 -10 14 -13 13 -3
18 0 15 8 -3 7 -1 16 5 20 6 3 9 0 5 -8 -3 -8 3 -20 12 -28 16 -12 17 -12 11
3 -3 10 -1 20 5 24 7 4 8 3 4 -4 -4 -7 -3 -12 3 -12 5 0 13 5 16 10 5 8 11 7
21 -1 11 -9 18 -8 32 2 14 11 15 11 5 -1 -18 -20 -16 -35 2 -20 11 9 15 9 15
1 0 -7 5 -9 10 -6 6 4 7 11 4 17 -4 6 -2 8 4 4 6 -3 9 -16 7 -27 -4 -17 -2
-19 10 -9 16 14 20 25 6 16 -5 -4 -7 4 -3 16 5 20 6 20 12 3 3 -10 14 -19 23
-21 10 -1 14 2 11 8 -4 6 -1 8 7 6 8 -3 13 -10 12 -16 -1 -5 3 -9 10 -7 39 10
56 18 52 25 -3 5 -1 12 5 15 6 4 10 3 9 -2 -4 -21 3 -29 25 -29 18 0 22 4 19
21 -4 17 -2 16 11 -5 13 -22 21 -21 17 2 0 4 6 5 14 2 8 -4 12 -11 9 -18 -3
-6 1 -3 9 7 11 14 16 15 20 5 3 -8 6 -5 7 7 1 18 2 18 14 -4 11 -19 14 -21 19
-7 9 22 28 21 21 -1 -5 -15 -4 -15 4 -3 6 8 8 18 5 24 -4 5 1 7 11 3 9 -4 14
-3 11 2 -3 5 0 13 6 17 8 4 9 3 5 -4 -4 -7 -2 -12 4 -12 6 0 8 -4 5 -10 -3 -6
1 -7 9 -4 9 3 16 10 16 16 0 5 -5 6 -12 2 -6 -4 -8 -3 -4 4 7 11 36 9 59 -4 7
-5 6 0 -3 11 -10 13 -11 16 -2 11 8 -5 18 -1 26 9 11 16 13 16 13 1 0 -9 -4
-16 -9 -16 -4 0 -8 -4 -8 -8 0 -12 39 -12 46 -1 3 6 12 5 22 -3 15 -11 15 -11
5 3 -7 9 -9 20 -5 25 4 5 -2 1 -14 -9 -25 -21 -35 -22 -28 -2 4 8 10 12 15 9
5 -3 12 2 15 11 6 14 8 14 21 -2 8 -10 11 -12 7 -4 -5 11 -3 13 10 8 14 -6 17
-3 12 9 -5 14 -4 15 8 5 11 -9 17 -8 30 4 9 9 16 12 16 6 0 -6 5 -11 11 -11 5
0 7 5 4 10 -3 6 -1 10 5 10 6 0 8 5 4 12 -4 6 -3 8 4 4 6 -3 16 2 22 11 10 17
10 17 8 -1 -2 -10 3 -20 10 -22 7 -1 8 0 3 2 -6 3 -7 12 -4 20 4 12 8 13 13 4
4 -7 13 -9 19 -5 9 5 9 11 -1 23 -8 10 -9 13 -1 9 7 -4 17 0 23 10 9 15 10 14
5 -7 -5 -19 -4 -22 4 -10 6 8 11 11 11 6 0 -5 6 -3 13 3 8 6 16 8 20 5 3 -3 3
3 0 15 -3 13 -1 21 6 21 7 0 9 -4 6 -10 -3 -5 -2 -10 3 -10 6 0 13 7 16 16 3
8 2 12 -4 9 -6 -3 -10 -1 -10 4 0 6 7 11 15 11 8 0 15 -5 15 -12 0 -6 3 -9 6
-6 3 4 1 15 -5 27 -8 14 -8 22 1 27 6 4 8 3 4 -4 -3 -6 -2 -13 4 -17 10 -6 14
7 11 32 -1 6 3 14 9 18 5 3 7 0 4 -8 -3 -8 0 -18 7 -23 8 -5 10 -3 4 6 -6 10
-4 12 9 7 9 -4 15 -3 11 2 -3 5 -2 11 2 14 5 2 2 2 -4 1 -7 -2 -13 1 -13 6 0
6 9 10 19 10 18 0 34 25 30 46 -4 21 2 26 16 14 13 -11 14 -10 9 5 -5 12 1 24
17 37 13 11 19 17 12 14 -7 -4 -11 1 -10 13 1 18 3 19 17 6 12 -11 17 -12 18
-3 0 7 3 25 5 40 3 20 1 25 -12 21 -14 -4 -14 -3 0 6 19 13 57 67 38 56 -9 -6
-11 -3 -6 9 4 10 7 20 7 22 0 3 4 3 9 -1 5 -3 13 0 17 6 4 8 3 9 -4 5 -17 -10
-15 10 3 27 13 13 13 16 0 21 -8 3 -14 0 -12 -6 1 -6 -5 -13 -13 -15 -9 -3
-11 -1 -5 4 10 8 12 22 18 91 2 18 9 37 17 42 16 10 22 40 8 40 -6 0 -7 -8 -4
-17 4 -10 4 -14 0 -10 -4 4 -14 1 -22 -6 -12 -9 -12 -6 1 14 10 14 14 29 10
34 -5 4 -1 6 8 3 12 -5 15 1 14 26 -1 17 3 40 8 51 6 15 3 14 -12 -5 -20 -24
-20 -24 -14 -2 3 15 1 22 -8 22 -11 0 -11 2 1 10 13 8 12 11 -5 25 -19 16 -19
16 3 5 16 -8 22 -17 17 -28 -5 -13 -4 -14 6 -5 9 9 8 18 -5 38 -17 26 -17 26
6 15 19 -9 21 -9 8 2 -9 7 -16 21 -17 31 -2 42 -3 48 -11 43 -4 -2 -8 9 -8 25
-1 16 2 26 6 24 5 -3 12 -1 15 5 4 6 1 9 -7 8 -7 -2 -12 2 -11 9 2 7 -3 11
-10 9 -6 -1 -9 -1 -4 1 4 3 7 12 7 21 0 15 2 15 10 2 5 -8 10 -10 10 -4 0 21
-14 24 -34 7 -12 -10 -16 -11 -9 -4 6 7 9 20 6 27 -3 10 0 12 10 8 8 -3 18 -1
21 4 3 5 -2 9 -10 8 -9 0 -18 8 -20 18 -1 10 -9 23 -16 27 -11 7 -11 12 0 29
7 11 9 20 5 19 -21 -3 -24 3 -12 19 7 9 9 14 5 10 -5 -4 -16 -2 -25 5 -14 11
-14 10 -2 -5 11 -15 11 -18 0 -18 -10 -1 -9 -4 3 -14 10 -7 15 -16 11 -19 -11
-12 -30 26 -27 55 3 19 0 27 -7 22 -7 -4 -10 -1 -7 7 3 8 12 13 21 13 9 -1 14
2 11 7 -3 5 -13 8 -22 7 -12 -2 -17 4 -16 19 0 18 -2 20 -13 12 -9 -9 -13 -8
-13 0 0 7 -5 9 -12 5 -10 -6 -10 -4 0 8 9 12 10 18 2 23 -6 4 -9 14 -5 22 4
13 3 14 -10 3 -11 -9 -15 -9 -15 -1 0 7 -5 9 -12 5 -7 -5 -9 -2 -5 9 7 20 -18
44 -28 26 -10 -16 -26 11 -19 33 2 9 0 19 -5 23 -7 3 -8 0 -5 -9 10 -27 -12
-18 -24 9 -11 23 -14 24 -34 14 -21 -11 -22 -11 -9 5 12 15 12 19 -2 32 -9 8
-12 9 -7 2 19 -22 10 -31 -12 -12 -12 10 -19 14 -15 8 3 -6 0 -11 -8 -11 -15
0 -15 17 0 30 6 5 3 7 -7 3 -9 -2 -19 0 -21 7 -2 7 -2 1 0 -13 l3 -25 -17 28
c-19 29 -41 34 -62 15 -8 -8 -11 -8 -8 -2 8 14 -18 38 -32 30 -5 -4 -13 -2
-16 4 -5 8 -11 7 -21 -1 -9 -7 -14 -8 -13 -3 3 20 -2 32 -17 38 -14 5 -15 4
-5 -8 9 -11 9 -16 0 -22 -8 -4 -9 -3 -5 4 6 11 -6 16 -26 13 -5 0 -8 3 -8 9 0
6 5 10 10 10 6 0 10 5 10 11 0 8 -4 8 -14 0 -10 -9 -16 -9 -21 -1 -8 12 -46 3
-58 -14 -5 -6 -7 -1 -4 12 5 23 5 23 -13 7 -17 -16 -18 -15 -16 9 2 14 -1 23
-5 20 -5 -3 -9 -12 -9 -19 0 -9 -6 -12 -16 -8 -9 3 -20 0 -25 -8 -7 -12 -9
-12 -9 0 0 7 -6 11 -15 8 -8 -4 -17 -1 -21 5 -4 6 -3 8 4 4 16 -9 26 14 13 27
-9 9 -10 7 -5 -8 4 -11 4 -17 -1 -13 -4 4 -15 2 -23 -5 -13 -10 -15 -9 -9 5 3
10 1 20 -5 24 -6 4 -8 3 -4 -4 7 -12 -4 -21 -34 -27 -18 -3 -20 0 -14 18 6 21
5 21 -8 3 -15 -19 -68 -31 -68 -16 0 14 18 21 22 8 5 -14 28 -2 28 15 0 8 -3
8 -9 -2 -6 -9 -10 -10 -16 -2 -4 8 -11 9 -18 3 -14 -11 -87 -21 -87 -12 0 3 3
10 8 16 4 5 -3 -2 -15 -15 -12 -14 -25 -22 -29 -18 -4 4 -2 7 4 7 15 0 16 26
2 35 -6 3 -7 -1 -4 -9z m460 -64 c1 -7 0 -8 -3 -2 -3 8 -9 8 -18 0 -10 -8 -15
-8 -21 1 -4 8 -3 9 4 5 7 -4 12 -2 12 4 0 15 23 7 26 -8z m-939 -37 c-6 -7
-14 -9 -15 -4 -2 5 -9 6 -14 3 -6 -4 -8 -3 -5 2 3 5 15 10 26 11 17 1 18 -1 8
-12z m-62 -18 c-31 -18 -49 -18 -34 -1 6 7 15 12 19 9 5 -3 12 0 15 6 4 5 10
7 13 4 4 -4 -2 -12 -13 -18z m1348 -97 c3 -11 1 -18 -4 -14 -5 3 -9 12 -9 20
0 20 7 17 13 -6z m-1518 -10 c3 -5 1 -10 -4 -10 -6 0 -11 5 -11 10 0 6 2 10 4
10 3 0 8 -4 11 -10z m1649 -108 c3 -5 -1 -9 -9 -9 -8 0 -12 4 -9 9 3 4 7 8 9
8 2 0 6 -4 9 -8z m36 -73 c0 -5 -4 -9 -8 -9 -5 0 -9 7 -9 15 0 8 4 12 9 9 4
-3 8 -9 8 -15z m-1865 -27 c-3 -3 -11 0 -18 7 -9 10 -8 11 6 5 10 -3 15 -9 12
-12z m-18 -27 c0 -8 -4 -12 -9 -9 -5 3 -6 10 -3 15 9 13 12 11 12 -6z m1958
-95 c3 -5 1 -10 -4 -10 -6 0 -11 5 -11 10 0 6 2 10 4 10 3 0 8 -4 11 -10z
m-2010 -29 c1 -12 -3 -17 -12 -14 -9 4 -10 9 -3 18 5 6 8 15 5 18 -3 4 -2 5 2
2 4 -3 7 -14 8 -24z m-7 -66 c-3 -3 -9 2 -12 12 -6 14 -5 15 5 6 7 -7 10 -15
7 -18z m2051 -111 c4 3 8 -1 8 -9 0 -26 -22 -23 -23 4 -1 14 1 20 3 13 3 -6 8
-10 12 -8z m-2075 -82 c3 -5 -1 -9 -9 -9 -8 0 -12 4 -9 9 3 4 7 8 9 8 2 0 6
-4 9 -8z m0 -37 c3 -8 1 -15 -4 -15 -6 0 -10 7 -10 15 0 8 2 15 4 15 2 0 6 -7
10 -15z m2049 -300 c-3 -9 -8 -14 -10 -11 -3 3 -2 9 2 15 9 16 15 13 8 -4z
m-2026 -27 c-2 -7 3 -18 11 -24 12 -9 12 -13 2 -19 -8 -5 -11 -4 -6 3 3 5 1
12 -6 14 -14 5 -20 38 -6 38 5 0 8 -6 5 -12z m2023 -22 c0 -2 -8 -10 -17 -17
-16 -13 -17 -12 -4 4 13 16 21 21 21 13z m-27 -80 c-6 -23 -9 -24 -20 -7 -10
16 -9 19 5 17 9 -2 16 -6 15 -10z m-1927 -55 c-4 -5 -1 -12 4 -14 6 -3 5 -4
-2 -3 -15 3 -23 26 -8 26 6 0 9 -4 6 -9z m1838 -92 c-3 -5 -10 -7 -15 -3 -5 3
-7 10 -3 15 3 5 10 7 15 3 5 -3 7 -10 3 -15z m-1729 -48 c3 -5 2 -12 -3 -15
-5 -3 -9 1 -9 9 0 17 3 19 12 6z m1578 -96 c-3 -9 -8 -14 -10 -11 -3 3 -2 9 2
15 9 16 15 13 8 -4z m-476 -167 c-3 -8 -6 -5 -6 6 -1 11 2 17 5 13 3 -3 4 -12
1 -19z m-193 3 c3 -5 0 -14 -8 -20 -10 -9 -15 -8 -19 3 -4 11 -1 13 10 9 11
-4 14 -2 9 5 -4 7 -5 12 -2 12 3 0 7 -4 10 -9z m-681 -35 c-10 -13 -21 -22
-25 -20 -8 5 22 42 35 43 4 1 0 -10 -10 -23z m-135 -103 c-12 -15 -22 -18 -14
-4 4 5 0 11 -6 14 -7 3 -3 4 9 4 17 -1 19 -4 11 -14z"/>
<path d="M1406 2273 c-6 -14 -5 -15 5 -6 7 7 10 15 7 18 -3 3 -9 -2 -12 -12z"/>
<path d="M1505 2260 c-3 -6 1 -7 9 -4 18 7 21 14 7 14 -6 0 -13 -4 -16 -10z"/>
<path d="M1747 2216 c-4 -10 -1 -13 8 -9 8 3 12 9 9 14 -7 12 -11 11 -17 -5z"/>
<path d="M1815 2180 c3 -5 8 -10 11 -10 2 0 4 5 4 10 0 6 -5 10 -11 10 -5 0
-7 -4 -4 -10z"/>
<path d="M230 1749 c0 -5 5 -7 10 -4 6 3 10 8 10 11 0 2 -4 4 -10 4 -5 0 -10
-5 -10 -11z"/>
<path d="M176 1643 c-6 -14 -5 -15 5 -6 7 7 10 15 7 18 -3 3 -9 -2 -12 -12z"/>
<path d="M180 1601 c0 -6 4 -12 8 -15 5 -3 9 1 9 9 0 8 -4 15 -9 15 -4 0 -8
-4 -8 -9z"/>
<path d="M2280 1255 c0 -2 6 -8 13 -14 10 -8 14 -7 14 2 0 8 -6 14 -14 14 -7
0 -13 -1 -13 -2z"/>
<path d="M2282 1220 c3 -8 2 -22 -3 -31 -5 -10 -4 -16 5 -16 13 0 14 43 0 55
-4 4 -4 0 -2 -8z"/>
<path d="M186 1175 c4 -8 10 -12 15 -9 11 6 2 24 -11 24 -5 0 -7 -7 -4 -15z"/>
<path d="M190 1140 c0 -5 5 -10 11 -10 5 0 7 5 4 10 -3 6 -8 10 -11 10 -2 0
-4 -4 -4 -10z"/>
<path d="M2188 883 c7 -3 16 -2 19 1 4 3 -2 6 -13 5 -11 0 -14 -3 -6 -6z"/>
<path d="M775 540 c-3 -5 -1 -10 4 -10 6 0 11 5 11 10 0 6 -2 10 -4 10 -3 0
-8 -4 -11 -10z"/>
<path d="M840 530 c-9 -6 -10 -10 -3 -10 6 0 15 5 18 10 8 12 4 12 -15 0z"/>
<path d="M1623 525 c0 -8 4 -12 9 -9 5 3 6 10 3 15 -9 13 -12 11 -12 -6z"/>
<path d="M1097 513 c-12 -12 -7 -19 15 -20 13 -1 18 1 13 5 -6 4 -13 11 -16
15 -3 4 -9 4 -12 0z"/>
<path d="M576 451 c-4 -5 -2 -12 3 -15 5 -4 12 -2 15 3 4 5 2 12 -3 15 -5 4
-12 2 -15 -3z"/>
<path d="M236 402 c-2 -4 4 -9 15 -9 11 -1 17 2 14 8 -7 11 -22 12 -29 1z"/>
</g>
</svg>
